<?xml version="1.0" standalone="no"?><!DOCTYPE svg PUBLIC "-//W3C//DTD SVG 1.1//EN" "http://www.w3.org/Graphics/SVG/1.1/DTD/svg11.dtd"><svg class="icon" width="200px" height="200.00px" viewBox="0 0 1024 1024" version="1.1" xmlns="http://www.w3.org/2000/svg"><path fill="#333333" d="M113.834667 224.407704c0 125.155556 178.251852 223.762963 398.222222 223.762963s398.222222-98.607407 398.222222-223.762963-178.251852-223.762963-398.222222-223.762963-398.222222 98.607407-398.222222 223.762963zM512.056889 539.192889c-163.081481 0-303.407407-53.096296-364.088889-132.740741-22.755556 26.548148-34.133333 56.888889-34.133333 87.22963 0 125.155556 178.251852 223.762963 398.222222 223.762963s398.222222-98.607407 398.222222-223.762963c0-30.340741-11.377778-64.474074-34.133333-91.022222-60.681481 79.644444-201.007407 136.533333-364.088889 136.533333zM512.056889 812.259556c-163.081481 0-307.2-56.888889-367.881482-136.533334-18.962963 26.548148-30.340741 56.888889-30.34074 87.22963 0 121.362963 178.251852 223.762963 398.222222 223.762963s398.222222-102.4 398.222222-223.762963c0-30.340741-11.377778-60.681481-30.340741-87.22963-60.681481 79.644444-204.8 136.533333-367.881481 136.533334z" /></svg>