<?xml version="1.0" standalone="no"?><!DOCTYPE svg PUBLIC "-//W3C//DTD SVG 1.1//EN" "http://www.w3.org/Graphics/SVG/1.1/DTD/svg11.dtd"><svg class="icon" width="200px" height="200.00px" viewBox="0 0 1024 1024" version="1.1" xmlns="http://www.w3.org/2000/svg"><path fill="#333333" d="M94.72 95.232h834.048c38.4 0 69.632 31.232 69.632 69.632v104.448H25.088V163.84c0-37.888 31.232-68.608 69.632-68.608zM25.088 334.336v528.896c0 36.352 31.232 66.048 69.632 66.048h833.536c38.4 0 69.632-29.696 69.632-66.048V334.336H25.088z m324.096 467.968H287.232L182.272 467.968h55.808l49.664 173.056c11.264 38.4 18.432 71.168 30.208 109.568h2.048c11.264-38.4 19.456-71.168 30.208-109.568l49.664-173.056h53.76l-104.448 334.336z m200.704 0H497.152V467.968h52.736v334.336z m190.976-126.464h-50.688v126.976h-52.736V467.968h101.376c74.752 0 128 25.6 128 100.864 0 73.216-53.248 107.008-125.952 107.008z"  /><path fill="#333333" d="M734.208 509.952h-43.52v123.392h45.568c53.76 0 78.848-20.48 78.848-64.512s-28.16-58.88-80.896-58.88z"  /></svg>